<svg width="860" height="180" viewBox="0 0 860 180" xmlns="http://www.w3.org/2000/svg">
  <defs>
    <!-- Background gradient -->
    <linearGradient id="bg" x1="0%" y1="0%" x2="100%" y2="100%">
      <stop offset="0%" stop-color="#0a0a0a"/>
      <stop offset="50%" stop-color="#0d0d0d"/>
      <stop offset="100%" stop-color="#080808"/>
    </linearGradient>

    <!-- Red glow for lights -->
    <radialGradient id="redGlow" cx="50%" cy="50%" r="50%">
      <stop offset="0%" stop-color="#FF1801" stop-opacity="1"/>
      <stop offset="60%" stop-color="#FF1801" stop-opacity="0.4"/>
      <stop offset="100%" stop-color="#FF1801" stop-opacity="0"/>
    </radialGradient>

    <radialGradient id="greenGlow" cx="50%" cy="50%" r="50%">
      <stop offset="0%" stop-color="#00FF44" stop-opacity="1"/>
      <stop offset="60%" stop-color="#00FF44" stop-opacity="0.4"/>
      <stop offset="100%" stop-color="#00FF44" stop-opacity="0"/>
    </radialGradient>

    <!-- Title glow -->
    <filter id="titleGlow" x="-20%" y="-20%" width="140%" height="140%">
      <feGaussianBlur in="SourceGraphic" stdDeviation="3" result="blur"/>
      <feMerge>
        <feMergeNode in="blur"/>
        <feMergeNode in="SourceGraphic"/>
      </feMerge>
    </filter>

    <filter id="softGlow" x="-30%" y="-30%" width="160%" height="160%">
      <feGaussianBlur in="SourceGraphic" stdDeviation="6" result="blur"/>
      <feMerge>
        <feMergeNode in="blur"/>
        <feMergeNode in="blur"/>
        <feMergeNode in="SourceGraphic"/>
      </feMerge>
    </filter>

    <!-- Checkered pattern -->
    <pattern id="checker" x="0" y="0" width="10" height="10" patternUnits="userSpaceOnUse">
      <rect x="0" y="0" width="5" height="5" fill="#fff"/>
      <rect x="5" y="5" width="5" height="5" fill="#fff"/>
      <rect x="0" y="5" width="5" height="5" fill="#000"/>
      <rect x="5" y="0" width="5" height="5" fill="#000"/>
    </pattern>

    <!-- Scan line -->
    <linearGradient id="scanline" x1="0%" y1="0%" x2="0%" y2="100%">
      <stop offset="0%" stop-color="#FF1801" stop-opacity="0"/>
      <stop offset="48%" stop-color="#FF1801" stop-opacity="0"/>
      <stop offset="50%" stop-color="#FF1801" stop-opacity="0.15"/>
      <stop offset="52%" stop-color="#FF1801" stop-opacity="0"/>
      <stop offset="100%" stop-color="#FF1801" stop-opacity="0"/>
    </linearGradient>

    <!-- Circuit path glow -->
    <filter id="circuitGlow">
      <feGaussianBlur in="SourceGraphic" stdDeviation="2.5" result="blur"/>
      <feMerge>
        <feMergeNode in="blur"/>
        <feMergeNode in="SourceGraphic"/>
      </feMerge>
    </filter>
  </defs>

  <!-- Background -->
  <rect width="860" height="180" fill="url(#bg)"/>

  <!-- Subtle grid lines -->
  <line x1="0" y1="45" x2="860" y2="45" stroke="#1a1a1a" stroke-width="0.5"/>
  <line x1="0" y1="90" x2="860" y2="90" stroke="#1a1a1a" stroke-width="0.5"/>
  <line x1="0" y1="135" x2="860" y2="135" stroke="#1a1a1a" stroke-width="0.5"/>
  <line x1="215" y1="0" x2="215" y2="180" stroke="#1a1a1a" stroke-width="0.5"/>
  <line x1="430" y1="0" x2="430" y2="180" stroke="#1a1a1a" stroke-width="0.5"/>
  <line x1="645" y1="0" x2="645" y2="180" stroke="#1a1a1a" stroke-width="0.5"/>

  <!-- ══ CIRCUIT TRACK (top-down, left side) ══ -->
  <!-- Outer track border - glowing red line left decoration -->
  <path d="M 30,20 L 160,20 Q 185,20 185,45 L 185,80 Q 185,105 160,105 L 80,105 Q 55,105 55,130 L 55,158" 
        stroke="#FF1801" stroke-width="1" fill="none" opacity="0.25" filter="url(#circuitGlow)"/>
  <path d="M 50,20 L 160,20 Q 175,20 175,45 L 175,80 Q 175,95 160,95 L 80,95 Q 45,95 45,130 L 45,158"
        stroke="#333" stroke-width="6" fill="none" opacity="0.4"/>
  <path d="M 50,20 L 160,20 Q 175,20 175,45 L 175,80 Q 175,95 160,95 L 80,95 Q 45,95 45,130 L 45,158"
        stroke="#FF1801" stroke-width="1.5" fill="none" opacity="0.6" filter="url(#circuitGlow)">
    <animate attributeName="stroke-dashoffset" from="0" to="-400" dur="3s" repeatCount="indefinite"/>
    <animate attributeName="stroke-dasharray" values="0,400; 20,380; 0,400" dur="3s" repeatCount="indefinite"/>
  </path>

  <!-- Right side circuit decoration -->
  <path d="M 810,20 L 700,20 Q 675,20 675,45 L 675,80 Q 675,105 700,105 L 780,105 Q 805,105 805,130 L 805,158"
        stroke="#333" stroke-width="6" fill="none" opacity="0.4"/>
  <path d="M 810,20 L 700,20 Q 675,20 675,45 L 675,80 Q 675,105 700,105 L 780,105 Q 805,105 805,130 L 805,158"
        stroke="#FF1801" stroke-width="1.5" fill="none" opacity="0.6" filter="url(#circuitGlow)">
    <animate attributeName="stroke-dashoffset" from="-400" to="0" dur="3s" repeatCount="indefinite"/>
    <animate attributeName="stroke-dasharray" values="0,400; 20,380; 0,400" dur="3s" repeatCount="indefinite"/>
  </path>

  <!-- ══ MAIN TITLE ══ -->
  <!-- Shadow/glow layer -->
  <text x="430" y="82" font-family="'Courier New', monospace" font-size="68" font-weight="900"
        fill="#FF1801" text-anchor="middle" opacity="0.15" filter="url(#softGlow)">HACKX 4.0</text>
  <!-- Main text -->
  <text x="430" y="82" font-family="'Courier New', monospace" font-size="68" font-weight="900"
        fill="#FF1801" text-anchor="middle" filter="url(#titleGlow)" letter-spacing="4">HACKX 4.0
    <animate attributeName="opacity" values="1;0.85;1;0.9;1" keyTimes="0;0.25;0.5;0.75;1" dur="4s" repeatCount="indefinite"/>
  </text>

  <!-- Subtitle -->
  <text x="430" y="108" font-family="'Courier New', monospace" font-size="13" font-weight="400"
        fill="#FFD700" text-anchor="middle" letter-spacing="8" opacity="0.9">NMIMS · NAVI MUMBAI · 24 HRS</text>

  <!-- ══ START LIGHTS BAR ══ -->
  <!-- Light bar housing -->
  <rect x="270" y="125" width="320" height="32" fill="#111" rx="4" stroke="#222" stroke-width="1"/>
  <rect x="272" y="127" width="316" height="28" fill="#0a0a0a" rx="3"/>

  <!-- Light 1 -->
  <circle cx="305" cy="141" r="10" fill="#1a0000" stroke="#330000" stroke-width="1"/>
  <circle cx="305" cy="141" r="10" fill="url(#redGlow)" opacity="0">
    <animate attributeName="opacity" values="0;0;1;1;1;1;1;0.3;0" keyTimes="0;0.1;0.2;0.3;0.4;0.5;0.7;0.85;1" dur="5s" repeatCount="indefinite"/>
  </circle>
  <circle cx="305" cy="141" r="6" fill="#FF1801" opacity="0">
    <animate attributeName="opacity" values="0;0;1;1;1;1;1;0.2;0" keyTimes="0;0.1;0.2;0.3;0.4;0.5;0.7;0.85;1" dur="5s" repeatCount="indefinite"/>
  </circle>

  <!-- Light 2 -->
  <circle cx="345" cy="141" r="10" fill="#1a0000" stroke="#330000" stroke-width="1"/>
  <circle cx="345" cy="141" r="10" fill="url(#redGlow)" opacity="0">
    <animate attributeName="opacity" values="0;0;0;1;1;1;1;0.3;0" keyTimes="0;0.1;0.2;0.3;0.4;0.5;0.7;0.85;1" dur="5s" repeatCount="indefinite"/>
  </circle>
  <circle cx="345" cy="141" r="6" fill="#FF1801" opacity="0">
    <animate attributeName="opacity" values="0;0;0;1;1;1;1;0.2;0" keyTimes="0;0.1;0.2;0.3;0.4;0.5;0.7;0.85;1" dur="5s" repeatCount="indefinite"/>
  </circle>

  <!-- Light 3 -->
  <circle cx="385" cy="141" r="10" fill="#1a0000" stroke="#330000" stroke-width="1"/>
  <circle cx="385" cy="141" r="10" fill="url(#redGlow)" opacity="0">
    <animate attributeName="opacity" values="0;0;0;0;1;1;1;0.3;0" keyTimes="0;0.1;0.2;0.3;0.4;0.5;0.7;0.85;1" dur="5s" repeatCount="indefinite"/>
  </circle>
  <circle cx="385" cy="141" r="6" fill="#FF1801" opacity="0">
    <animate attributeName="opacity" values="0;0;0;0;1;1;1;0.2;0" keyTimes="0;0.1;0.2;0.3;0.4;0.5;0.7;0.85;1" dur="5s" repeatCount="indefinite"/>
  </circle>

  <!-- Light 4 -->
  <circle cx="425" cy="141" r="10" fill="#1a0000" stroke="#330000" stroke-width="1"/>
  <circle cx="425" cy="141" r="10" fill="url(#redGlow)" opacity="0">
    <animate attributeName="opacity" values="0;0;0;0;0;1;1;0.3;0" keyTimes="0;0.1;0.2;0.3;0.4;0.5;0.7;0.85;1" dur="5s" repeatCount="indefinite"/>
  </circle>
  <circle cx="425" cy="141" r="6" fill="#FF1801" opacity="0">
    <animate attributeName="opacity" values="0;0;0;0;0;1;1;0.2;0" keyTimes="0;0.1;0.2;0.3;0.4;0.5;0.7;0.85;1" dur="5s" repeatCount="indefinite"/>
  </circle>

  <!-- Light 5 -->
  <circle cx="465" cy="141" r="10" fill="#1a0000" stroke="#330000" stroke-width="1"/>
  <circle cx="465" cy="141" r="10" fill="url(#redGlow)" opacity="0">
    <animate attributeName="opacity" values="0;0;0;0;0;0;1;0.3;0" keyTimes="0;0.1;0.2;0.3;0.4;0.5;0.7;0.85;1" dur="5s" repeatCount="indefinite"/>
  </circle>
  <circle cx="465" cy="141" r="6" fill="#FF1801" opacity="0">
    <animate attributeName="opacity" values="0;0;0;0;0;0;1;0.2;0" keyTimes="0;0.1;0.2;0.3;0.4;0.5;0.7;0.85;1" dur="5s" repeatCount="indefinite"/>
  </circle>

  <!-- LIGHTS OUT — green flash -->
  <circle cx="305" cy="141" r="10" fill="url(#greenGlow)" opacity="0">
    <animate attributeName="opacity" values="0;0;0;0;0;0;0;0.9;0" keyTimes="0;0.1;0.2;0.3;0.4;0.5;0.7;0.8;1" dur="5s" repeatCount="indefinite"/>
  </circle>
  <circle cx="345" cy="141" r="10" fill="url(#greenGlow)" opacity="0">
    <animate attributeName="opacity" values="0;0;0;0;0;0;0;0.9;0" keyTimes="0;0.1;0.2;0.3;0.4;0.5;0.7;0.82;1" dur="5s" repeatCount="indefinite"/>
  </circle>
  <circle cx="385" cy="141" r="10" fill="url(#greenGlow)" opacity="0">
    <animate attributeName="opacity" values="0;0;0;0;0;0;0;0.9;0" keyTimes="0;0.1;0.2;0.3;0.4;0.5;0.7;0.84;1" dur="5s" repeatCount="indefinite"/>
  </circle>
  <circle cx="425" cy="141" r="10" fill="url(#greenGlow)" opacity="0">
    <animate attributeName="opacity" values="0;0;0;0;0;0;0;0.9;0" keyTimes="0;0.1;0.2;0.3;0.4;0.5;0.7;0.86;1" dur="5s" repeatCount="indefinite"/>
  </circle>
  <circle cx="465" cy="141" r="10" fill="url(#greenGlow)" opacity="0">
    <animate attributeName="opacity" values="0;0;0;0;0;0;0;0.9;0" keyTimes="0;0.1;0.2;0.3;0.4;0.5;0.7;0.88;1" dur="5s" repeatCount="indefinite"/>
  </circle>

  <!-- LIGHTS OUT label -->
  <text x="545" y="136" font-family="'Courier New', monospace" font-size="9" fill="#FF1801" letter-spacing="2" opacity="0">
    LIGHTS OUT
    <animate attributeName="opacity" values="0;0;0;0;0;0;0;1;0" keyTimes="0;0.1;0.2;0.3;0.4;0.5;0.7;0.8;1" dur="5s" repeatCount="indefinite"/>
  </text>
  <text x="545" y="150" font-family="'Courier New', monospace" font-size="9" fill="#00FF44" letter-spacing="2" opacity="0">
    AWAY WE GO
    <animate attributeName="opacity" values="0;0;0;0;0;0;0;1;0" keyTimes="0;0.1;0.2;0.3;0.4;0.5;0.7;0.8;1" dur="5s" repeatCount="indefinite"/>
  </text>

  <!-- Checkered flag strips (corners) -->
  <rect x="0" y="0" width="30" height="12" fill="url(#checker)" opacity="0.6"/>
  <rect x="830" y="0" width="30" height="12" fill="url(#checker)" opacity="0.6"/>
  <rect x="0" y="168" width="30" height="12" fill="url(#checker)" opacity="0.6"/>
  <rect x="830" y="168" width="30" height="12" fill="url(#checker)" opacity="0.6"/>

  <!-- Top red line accent -->
  <rect x="0" y="0" width="860" height="3" fill="#FF1801" opacity="0.8"/>
  <!-- Bottom red line accent -->
  <rect x="0" y="177" width="860" height="3" fill="#FF1801" opacity="0.8"/>

  <!-- Scanline sweep effect -->
  <rect width="860" height="180" fill="url(#scanline)" opacity="0.4">
    <animateTransform attributeName="transform" type="translate" values="0,-180; 0,180" dur="3s" repeatCount="indefinite"/>
  </rect>

  <!-- Corner hex codes -->
  <text x="36" y="172" font-family="'Courier New', monospace" font-size="9" fill="#FF1801" opacity="0.4">0x4A · HACKX</text>
  <text x="690" y="172" font-family="'Courier New', monospace" font-size="9" fill="#FF1801" opacity="0.4">FEB 28 – MAR 1</text>
</svg>
